<mxfile host="app.diagrams.net" modified="2021-11-01T09:08:24.800Z" agent="5.0 (Windows NT 10.0; Win64; x64) AppleWebKit/537.36 (KHTML, like Gecko) Chrome/95.0.4638.69 Safari/537.36" etag="KjcH3zFrZSlSw4HxXBef" version="15.6.3" type="github">
  <diagram id="C5RBs43oDa-KdzZeNtuy" name="Page-1">
    <mxGraphModel dx="1182" dy="770" grid="1" gridSize="10" guides="1" tooltips="1" connect="1" arrows="1" fold="1" page="1" pageScale="1" pageWidth="1169" pageHeight="1654" math="0" shadow="0">
      <root>
        <mxCell id="WIyWlLk6GJQsqaUBKTNV-0" />
        <mxCell id="WIyWlLk6GJQsqaUBKTNV-1" parent="WIyWlLk6GJQsqaUBKTNV-0" />
        <mxCell id="z_5Pj0pz8qCEeLUEdnhH-0" value="领券中心" style="text;html=1;align=center;verticalAlign=middle;resizable=0;points=[];autosize=1;strokeColor=none;fillColor=none;" vertex="1" parent="WIyWlLk6GJQsqaUBKTNV-1">
          <mxGeometry x="40" y="20" width="60" height="20" as="geometry" />
        </mxCell>
        <mxCell id="z_5Pj0pz8qCEeLUEdnhH-5" value="" style="edgeStyle=orthogonalEdgeStyle;rounded=0;orthogonalLoop=1;jettySize=auto;html=1;" edge="1" parent="WIyWlLk6GJQsqaUBKTNV-1" source="z_5Pj0pz8qCEeLUEdnhH-1" target="z_5Pj0pz8qCEeLUEdnhH-4">
          <mxGeometry relative="1" as="geometry" />
        </mxCell>
        <mxCell id="z_5Pj0pz8qCEeLUEdnhH-1" value="开始" style="strokeWidth=2;html=1;shape=mxgraph.flowchart.start_2;whiteSpace=wrap;" vertex="1" parent="WIyWlLk6GJQsqaUBKTNV-1">
          <mxGeometry x="40" y="120" width="50" height="50" as="geometry" />
        </mxCell>
        <mxCell id="z_5Pj0pz8qCEeLUEdnhH-3" value="创建业务" style="text;html=1;align=center;verticalAlign=middle;resizable=0;points=[];autosize=1;strokeColor=none;fillColor=none;" vertex="1" parent="WIyWlLk6GJQsqaUBKTNV-1">
          <mxGeometry x="40" y="80" width="60" height="20" as="geometry" />
        </mxCell>
        <mxCell id="z_5Pj0pz8qCEeLUEdnhH-11" value="" style="edgeStyle=orthogonalEdgeStyle;rounded=0;orthogonalLoop=1;jettySize=auto;html=1;" edge="1" parent="WIyWlLk6GJQsqaUBKTNV-1" source="z_5Pj0pz8qCEeLUEdnhH-4" target="z_5Pj0pz8qCEeLUEdnhH-10">
          <mxGeometry relative="1" as="geometry" />
        </mxCell>
        <mxCell id="z_5Pj0pz8qCEeLUEdnhH-4" value="获取券信息" style="whiteSpace=wrap;html=1;strokeWidth=2;rounded=1;fillOpacity=100;imageWidth=24;arcSize=12;imageHeight=24;imageAspect=1;noLabel=0;autosize=0;" vertex="1" parent="WIyWlLk6GJQsqaUBKTNV-1">
          <mxGeometry x="135" y="115" width="120" height="60" as="geometry" />
        </mxCell>
        <mxCell id="z_5Pj0pz8qCEeLUEdnhH-13" value="" style="edgeStyle=orthogonalEdgeStyle;rounded=0;orthogonalLoop=1;jettySize=auto;html=1;" edge="1" parent="WIyWlLk6GJQsqaUBKTNV-1" source="z_5Pj0pz8qCEeLUEdnhH-10" target="z_5Pj0pz8qCEeLUEdnhH-12">
          <mxGeometry relative="1" as="geometry" />
        </mxCell>
        <mxCell id="z_5Pj0pz8qCEeLUEdnhH-18" value="" style="edgeStyle=orthogonalEdgeStyle;rounded=0;orthogonalLoop=1;jettySize=auto;html=1;" edge="1" parent="WIyWlLk6GJQsqaUBKTNV-1" source="z_5Pj0pz8qCEeLUEdnhH-10" target="z_5Pj0pz8qCEeLUEdnhH-17">
          <mxGeometry relative="1" as="geometry" />
        </mxCell>
        <mxCell id="z_5Pj0pz8qCEeLUEdnhH-10" value="是否暗券" style="rhombus;whiteSpace=wrap;html=1;strokeWidth=2;" vertex="1" parent="WIyWlLk6GJQsqaUBKTNV-1">
          <mxGeometry x="310" y="105" width="80" height="80" as="geometry" />
        </mxCell>
        <mxCell id="z_5Pj0pz8qCEeLUEdnhH-35" style="edgeStyle=orthogonalEdgeStyle;rounded=0;orthogonalLoop=1;jettySize=auto;html=1;exitX=0.5;exitY=1;exitDx=0;exitDy=0;" edge="1" parent="WIyWlLk6GJQsqaUBKTNV-1" source="z_5Pj0pz8qCEeLUEdnhH-12" target="z_5Pj0pz8qCEeLUEdnhH-36">
          <mxGeometry relative="1" as="geometry">
            <mxPoint x="370" y="300" as="targetPoint" />
          </mxGeometry>
        </mxCell>
        <mxCell id="z_5Pj0pz8qCEeLUEdnhH-12" value="修改事件類型" style="whiteSpace=wrap;html=1;strokeWidth=2;" vertex="1" parent="WIyWlLk6GJQsqaUBKTNV-1">
          <mxGeometry x="295" y="220" width="110" height="50" as="geometry" />
        </mxCell>
        <mxCell id="z_5Pj0pz8qCEeLUEdnhH-14" value="是" style="text;html=1;align=center;verticalAlign=middle;resizable=0;points=[];autosize=1;strokeColor=none;fillColor=none;" vertex="1" parent="WIyWlLk6GJQsqaUBKTNV-1">
          <mxGeometry x="315" y="190" width="30" height="20" as="geometry" />
        </mxCell>
        <mxCell id="z_5Pj0pz8qCEeLUEdnhH-20" value="" style="edgeStyle=orthogonalEdgeStyle;rounded=0;orthogonalLoop=1;jettySize=auto;html=1;entryX=0;entryY=0.5;entryDx=0;entryDy=0;" edge="1" parent="WIyWlLk6GJQsqaUBKTNV-1" source="z_5Pj0pz8qCEeLUEdnhH-17" target="z_5Pj0pz8qCEeLUEdnhH-25">
          <mxGeometry relative="1" as="geometry">
            <mxPoint x="610" y="145" as="targetPoint" />
          </mxGeometry>
        </mxCell>
        <mxCell id="z_5Pj0pz8qCEeLUEdnhH-34" style="edgeStyle=orthogonalEdgeStyle;rounded=0;orthogonalLoop=1;jettySize=auto;html=1;entryX=0.5;entryY=0;entryDx=0;entryDy=0;" edge="1" parent="WIyWlLk6GJQsqaUBKTNV-1" source="z_5Pj0pz8qCEeLUEdnhH-17" target="z_5Pj0pz8qCEeLUEdnhH-26">
          <mxGeometry relative="1" as="geometry">
            <Array as="points">
              <mxPoint x="510" y="85" />
              <mxPoint x="790" y="85" />
            </Array>
          </mxGeometry>
        </mxCell>
        <mxCell id="z_5Pj0pz8qCEeLUEdnhH-17" value="編輯、新增" style="rhombus;whiteSpace=wrap;html=1;strokeWidth=2;" vertex="1" parent="WIyWlLk6GJQsqaUBKTNV-1">
          <mxGeometry x="470" y="105" width="80" height="80" as="geometry" />
        </mxCell>
        <mxCell id="z_5Pj0pz8qCEeLUEdnhH-21" value="新增" style="text;html=1;align=center;verticalAlign=middle;resizable=0;points=[];autosize=1;strokeColor=none;fillColor=none;" vertex="1" parent="WIyWlLk6GJQsqaUBKTNV-1">
          <mxGeometry x="560" y="60" width="40" height="20" as="geometry" />
        </mxCell>
        <mxCell id="z_5Pj0pz8qCEeLUEdnhH-24" value="編輯" style="text;html=1;align=center;verticalAlign=middle;resizable=0;points=[];autosize=1;strokeColor=none;fillColor=none;" vertex="1" parent="WIyWlLk6GJQsqaUBKTNV-1">
          <mxGeometry x="560" y="115" width="40" height="20" as="geometry" />
        </mxCell>
        <mxCell id="z_5Pj0pz8qCEeLUEdnhH-27" value="" style="edgeStyle=orthogonalEdgeStyle;rounded=0;orthogonalLoop=1;jettySize=auto;html=1;" edge="1" parent="WIyWlLk6GJQsqaUBKTNV-1" source="z_5Pj0pz8qCEeLUEdnhH-25" target="z_5Pj0pz8qCEeLUEdnhH-26">
          <mxGeometry relative="1" as="geometry" />
        </mxCell>
        <mxCell id="z_5Pj0pz8qCEeLUEdnhH-32" value="" style="edgeStyle=orthogonalEdgeStyle;rounded=0;orthogonalLoop=1;jettySize=auto;html=1;" edge="1" parent="WIyWlLk6GJQsqaUBKTNV-1" source="z_5Pj0pz8qCEeLUEdnhH-25" target="z_5Pj0pz8qCEeLUEdnhH-31">
          <mxGeometry relative="1" as="geometry" />
        </mxCell>
        <mxCell id="z_5Pj0pz8qCEeLUEdnhH-25" value="是否已發佈" style="rhombus;whiteSpace=wrap;html=1;strokeWidth=2;" vertex="1" parent="WIyWlLk6GJQsqaUBKTNV-1">
          <mxGeometry x="610" y="105" width="80" height="80" as="geometry" />
        </mxCell>
        <mxCell id="z_5Pj0pz8qCEeLUEdnhH-37" value="" style="edgeStyle=orthogonalEdgeStyle;rounded=0;orthogonalLoop=1;jettySize=auto;html=1;" edge="1" parent="WIyWlLk6GJQsqaUBKTNV-1" source="z_5Pj0pz8qCEeLUEdnhH-26" target="z_5Pj0pz8qCEeLUEdnhH-36">
          <mxGeometry relative="1" as="geometry" />
        </mxCell>
        <mxCell id="z_5Pj0pz8qCEeLUEdnhH-26" value="检查库存" style="whiteSpace=wrap;html=1;strokeWidth=2;" vertex="1" parent="WIyWlLk6GJQsqaUBKTNV-1">
          <mxGeometry x="740" y="122.5" width="100" height="45" as="geometry" />
        </mxCell>
        <mxCell id="z_5Pj0pz8qCEeLUEdnhH-28" value="否" style="text;html=1;align=center;verticalAlign=middle;resizable=0;points=[];autosize=1;strokeColor=none;fillColor=none;" vertex="1" parent="WIyWlLk6GJQsqaUBKTNV-1">
          <mxGeometry x="700" y="115" width="30" height="20" as="geometry" />
        </mxCell>
        <mxCell id="z_5Pj0pz8qCEeLUEdnhH-38" style="edgeStyle=orthogonalEdgeStyle;rounded=0;orthogonalLoop=1;jettySize=auto;html=1;" edge="1" parent="WIyWlLk6GJQsqaUBKTNV-1" source="z_5Pj0pz8qCEeLUEdnhH-31" target="z_5Pj0pz8qCEeLUEdnhH-36">
          <mxGeometry relative="1" as="geometry" />
        </mxCell>
        <mxCell id="z_5Pj0pz8qCEeLUEdnhH-31" value="更新erp事件" style="whiteSpace=wrap;html=1;strokeWidth=2;" vertex="1" parent="WIyWlLk6GJQsqaUBKTNV-1">
          <mxGeometry x="600" y="220" width="100" height="50" as="geometry" />
        </mxCell>
        <mxCell id="z_5Pj0pz8qCEeLUEdnhH-33" value="是" style="text;html=1;align=center;verticalAlign=middle;resizable=0;points=[];autosize=1;strokeColor=none;fillColor=none;" vertex="1" parent="WIyWlLk6GJQsqaUBKTNV-1">
          <mxGeometry x="660" y="190" width="30" height="20" as="geometry" />
        </mxCell>
        <mxCell id="z_5Pj0pz8qCEeLUEdnhH-36" value="" style="shape=waypoint;size=6;pointerEvents=1;points=[];fillColor=default;resizable=0;rotatable=0;perimeter=centerPerimeter;snapToPoint=1;strokeWidth=2;" vertex="1" parent="WIyWlLk6GJQsqaUBKTNV-1">
          <mxGeometry x="950" y="125" width="40" height="40" as="geometry" />
        </mxCell>
        <mxCell id="z_5Pj0pz8qCEeLUEdnhH-39" value="业务id---&amp;gt;事件id&lt;br&gt;1：1" style="text;html=1;align=center;verticalAlign=middle;resizable=0;points=[];autosize=1;strokeColor=none;fillColor=none;" vertex="1" parent="WIyWlLk6GJQsqaUBKTNV-1">
          <mxGeometry x="100" y="70" width="100" height="30" as="geometry" />
        </mxCell>
      </root>
    </mxGraphModel>
  </diagram>
</mxfile>
